<?xml version="1.0" encoding="UTF-8"?>
<svg id="Layer_1" data-name="Layer 1" xmlns="http://www.w3.org/2000/svg" viewBox="0 0 720 272.53">
  <defs>
    <style>
      .cls-1 {
        fill: #fff;
      }

      .cls-2 {
        fill: #b2b2b2;
      }

      .cls-3 {
        fill: #00d264;
      }
    </style>
  </defs>
  <g>
    <path class="cls-3" d="M491.36,149.17l34.88-89.33h14.65l-35,89.33h-14.53Z"/>
    <g>
      <path class="cls-1" d="M178.16,149.17v-59.32h13.45l1.2,6.97c3-4.92,9.01-8.77,17.53-8.77,9,0,15.25,4.44,18.37,11.29,3-6.85,9.97-11.29,18.97-11.29,14.41,0,22.33,8.65,22.33,22.33v38.78h-14.53v-34.94c0-8.52-4.56-12.97-11.53-12.97s-12.49,4.56-12.49,14.29v33.62h-14.65v-35.06c0-8.28-4.44-12.73-11.41-12.73s-12.61,4.56-12.61,14.17v33.62h-14.65Z"/>
      <path class="cls-1" d="M283.45,149.17V59.84h14.65v38.66c3.84-6.6,11.77-10.57,20.77-10.57,16.93,0,27.25,13.21,27.25,31.94s-11.17,30.86-28.21,30.86c-8.89,0-16.45-3.96-19.93-10.81l-.96,9.25h-13.57ZM314.9,137.28c10.33,0,16.45-7.44,16.45-18.01s-6.12-18.13-16.45-18.13-16.69,7.44-16.69,18.13,6.6,18.01,16.69,18.01Z"/>
      <path class="cls-1" d="M109.54,119.51c0-18.61,12.13-31.46,29.54-31.46,2.54,0,12.07-.07,19.78,6.89,7.79,7.03,8.87,16.83,9.35,21.1.29,2.59.26,4.78.17,6.35h-45.01c-.02.96-.09,8.3,5.75,13.01,4.29,3.46,9.11,3.31,10.69,3.31,8.04,0,13.33-3.12,15.01-8.76h13.57c-2.52,12.97-13.33,20.77-28.82,20.77-17.65,0-30.02-12.85-30.02-31.22ZM153.6,112.98c-.04-1.37-.32-5.06-3.03-8.27-3.83-4.54-9.55-4.62-11.37-4.65-1.81-.02-6.06-.02-9.92,3.06-4.52,3.6-5.21,8.76-5.33,9.85h29.65Z"/>
      <path class="cls-1" d="M353.97,119.51c0-18.61,12.13-31.46,29.54-31.46,2.54,0,12.07-.07,19.78,6.89,7.79,7.03,8.87,16.83,9.35,21.1.29,2.59.26,4.78.17,6.35h-45.01c-.02.96-.09,8.3,5.75,13.01,4.29,3.46,9.11,3.31,10.69,3.31,8.04,0,13.33-3.12,15.01-8.76h13.57c-2.52,12.97-13.33,20.77-28.82,20.77-17.65,0-30.02-12.85-30.02-31.22ZM398.03,112.98c-.04-1.37-.32-5.06-3.03-8.27-3.83-4.54-9.55-4.62-11.37-4.65-1.81-.02-6.06-.02-9.92,3.06-4.52,3.6-5.21,8.76-5.33,9.85h29.65Z"/>
      <path class="cls-1" d="M421.14,119.75c0-18.49,10.81-31.7,28.7-31.7,8.28,0,15.61,3.48,19.33,9.37v-37.58h14.53v89.33h-13.45l-.96-9.25c-3.6,6.84-11.29,10.81-20.29,10.81-17.17,0-27.86-12.61-27.86-30.98ZM469.05,119.27c0-10.69-6.6-18.13-16.81-18.13s-16.45,7.56-16.45,18.13,6.24,18.01,16.45,18.01,16.81-7.32,16.81-18.01Z"/>
      <path class="cls-1" d="M546.11,68.6c0-4.92,3.96-8.77,9-8.77s8.77,3.84,8.77,8.77-3.96,8.89-8.77,8.89c-5.04,0-9-3.96-9-8.89ZM547.79,89.85h14.65v59.32h-14.65v-59.32Z"/>
      <path class="cls-1" d="M610.45,148.32c-3.24,1.44-7.09,2.16-11.29,2.16-11.29,0-18.37-5.76-18.37-19.93v-28.46h-9.13v-12.25h9.13v-18.49h14.53v18.49h13.57v12.25h-13.57v25.94c0,7.09,3.12,9.48,7.56,9.48,1.68,0,3.72-.36,5.88-1.08l1.68,11.88Z"/>
    </g>
    <polygon class="cls-3" points="631.39 151.01 621.97 141.59 645.87 117.69 621.97 93.79 631.39 84.37 660 112.98 660 122.4 631.39 151.01"/>
    <polygon class="cls-3" points="88.61 84.37 98.03 93.79 74.13 117.69 98.03 141.59 88.61 151.01 60 122.4 60 112.98 88.61 84.37"/>
  </g>
  <g>
    <path class="cls-2" d="M109.97,212.28v-25.21h2.5l9.19,22.22,9.19-22.22h2.54v25.21h-2.5v-11.97c0-4.4.07-6.34.21-8.06l-8.2,20.03h-2.43l-8.2-19.93c.14.95.21,3.73.21,7.57v12.36h-2.5Z"/>
    <path class="cls-2" d="M145.01,212.28v-25.21h15.07v2.32h-12.53v9.08h11.37v2.29h-11.37v9.19h12.57v2.32h-15.11Z"/>
    <path class="cls-2" d="M170,212.28v-25.21h2.5l9.19,22.22,9.19-22.22h2.54v25.21h-2.5v-11.97c0-4.4.07-6.34.21-8.06l-8.2,20.03h-2.43l-8.2-19.93c.14.95.21,3.73.21,7.57v12.36h-2.5Z"/>
    <path class="cls-2" d="M205.05,187.06h9.23c4.86,0,7.85,2.46,7.85,6.51,0,2.96-1.3,4.96-3.91,5.99,2.92.95,4.4,2.99,4.4,6.09,0,4.05-3.03,6.62-7.82,6.62h-9.75v-25.21ZM207.58,189.32v9.23h6.97c3.17,0,4.96-1.76,4.96-4.75,0-2.82-1.9-4.47-5.28-4.47h-6.65ZM207.58,200.76v9.22h7.22c3.31,0,5.25-1.73,5.25-4.65s-1.97-4.58-5.25-4.58h-7.22Z"/>
    <path class="cls-2" d="M233.02,212.28v-25.21h15.07v2.32h-12.53v9.08h11.37v2.29h-11.37v9.19h12.57v2.32h-15.11Z"/>
    <path class="cls-2" d="M258.01,212.28v-25.21h9.4c5.11,0,8.2,2.82,8.2,7.29,0,3.63-1.9,6.16-5.14,7.04l5.39,10.88h-2.82l-5.14-10.46h-7.36v10.46h-2.54ZM260.54,199.53h6.94c3.49,0,5.53-1.9,5.53-5.11s-2.15-5.07-5.6-5.07h-6.87v10.18Z"/>
    <path class="cls-2" d="M312.73,212.7c-7.08,0-12.01-5.39-12.01-13.03s4.96-13.06,12.01-13.06,12.01,5.39,12.01,13.06-4.96,13.03-12.01,13.03ZM312.73,189.07c-5.56,0-9.37,4.3-9.37,10.6s3.8,10.6,9.37,10.6,9.4-4.33,9.4-10.6-3.84-10.6-9.4-10.6Z"/>
    <path class="cls-2" d="M337.51,201.18v11.09h-2.54v-25.21h14.86v2.32h-12.32v9.51h10.32v2.29h-10.32Z"/>
    <path class="cls-2" d="M378.36,203.02v9.26h-2.54v-25.21h9.61c4.86,0,7.92,3.17,7.92,7.92s-3.1,8.03-7.92,8.03h-7.08ZM378.36,189.35v11.37h6.58c3.66,0,5.77-2.32,5.77-5.77s-2.15-5.6-5.63-5.6h-6.73Z"/>
    <path class="cls-2" d="M405.2,203.02v9.26h-2.54v-25.21h9.61c4.86,0,7.92,3.17,7.92,7.92s-3.1,8.03-7.92,8.03h-7.08ZM405.2,189.35v11.37h6.58c3.66,0,5.77-2.32,5.77-5.77s-2.15-5.6-5.63-5.6h-6.73Z"/>
    <path class="cls-2" d="M432.03,201.18v11.09h-2.54v-25.21h14.86v2.32h-12.32v9.51h10.32v2.29h-10.32Z"/>
    <path class="cls-2" d="M471.44,199.78c0,6.55,3.87,10.53,9.54,10.53,4.23,0,8.34-2.04,8.34-8.1v-1.3h-9.12v-2.25h11.51v13.66h-2.01l-.25-4.01c-1.34,2.5-4.51,4.4-8.59,4.4-7.15,0-12.08-5.14-12.08-12.92s4.93-13.13,12.15-13.13c5.32,0,9.44,3.03,10.42,7.61h-2.75c-1.06-3.45-4.01-5.21-7.71-5.21-5.81,0-9.47,4.3-9.47,10.74Z"/>
    <path class="cls-2" d="M502.66,212.28v-25.21h9.4c5.11,0,8.2,2.82,8.2,7.29,0,3.63-1.9,6.16-5.14,7.04l5.39,10.88h-2.82l-5.14-10.46h-7.36v10.46h-2.54ZM505.19,199.53h6.94c3.49,0,5.53-1.9,5.53-5.11s-2.15-5.07-5.6-5.07h-6.87v10.18Z"/>
    <path class="cls-2" d="M541.03,212.7c-7.08,0-12.01-5.39-12.01-13.03s4.96-13.06,12.01-13.06,12.01,5.39,12.01,13.06-4.96,13.03-12.01,13.03ZM541.03,189.07c-5.56,0-9.37,4.3-9.37,10.6s3.8,10.6,9.37,10.6,9.4-4.33,9.4-10.6-3.84-10.6-9.4-10.6Z"/>
    <path class="cls-2" d="M563.05,187.06h2.54v16.34c0,4.44,2.43,6.83,6.83,6.83s6.73-2.46,6.73-6.83v-16.34h2.54v16.44c0,5.7-3.52,9.19-9.26,9.19s-9.37-3.45-9.37-9.19v-16.44Z"/>
    <path class="cls-2" d="M595.67,203.02v9.26h-2.54v-25.21h9.61c4.86,0,7.92,3.17,7.92,7.92s-3.1,8.03-7.92,8.03h-7.08ZM595.67,189.35v11.37h6.58c3.66,0,5.77-2.32,5.77-5.77s-2.15-5.6-5.63-5.6h-6.73Z"/>
  </g>
</svg>