<?xml version="1.0" encoding="UTF-8"?>
<svg id="Layer_1" data-name="Layer 1" xmlns="http://www.w3.org/2000/svg" viewBox="0 0 720 210">
  <defs>
    <style>
      .cls-1 {
        fill: #fff;
      }

      .cls-2 {
        fill: #00d264;
      }
    </style>
  </defs>
  <path class="cls-2" d="M491.36,148.74l34.88-89.33h14.65l-35,89.33h-14.53Z"/>
  <g>
    <path class="cls-1" d="M178.16,148.74v-59.32h13.45l1.2,6.97c3-4.92,9.01-8.77,17.53-8.77,9,0,15.25,4.44,18.37,11.29,3-6.85,9.97-11.29,18.97-11.29,14.41,0,22.33,8.65,22.33,22.33v38.78h-14.53v-34.94c0-8.52-4.56-12.97-11.53-12.97s-12.49,4.56-12.49,14.29v33.62h-14.65v-35.06c0-8.28-4.44-12.73-11.41-12.73s-12.61,4.56-12.61,14.17v33.62h-14.65Z"/>
    <path class="cls-1" d="M283.45,148.74V59.41h14.65v38.66c3.84-6.6,11.77-10.57,20.77-10.57,16.93,0,27.25,13.21,27.25,31.94s-11.17,30.86-28.21,30.86c-8.89,0-16.45-3.96-19.93-10.81l-.96,9.25h-13.57ZM314.91,136.86c10.33,0,16.45-7.44,16.45-18.01s-6.12-18.13-16.45-18.13-16.69,7.44-16.69,18.13,6.6,18.01,16.69,18.01Z"/>
    <path class="cls-1" d="M109.54,119.09c0-18.61,12.13-31.46,29.54-31.46,2.54,0,12.07-.07,19.78,6.89,7.79,7.03,8.87,16.83,9.35,21.1.29,2.59.26,4.78.17,6.35h-45.01c-.02.96-.09,8.3,5.75,13.01,4.29,3.46,9.11,3.31,10.69,3.31,8.04,0,13.33-3.12,15.01-8.76h13.57c-2.52,12.97-13.33,20.77-28.82,20.77-17.65,0-30.02-12.85-30.02-31.22ZM153.6,112.55c-.04-1.37-.32-5.06-3.03-8.27-3.83-4.54-9.55-4.62-11.37-4.65-1.81-.02-6.06-.02-9.92,3.06-4.52,3.6-5.21,8.76-5.33,9.85h29.65Z"/>
    <path class="cls-1" d="M353.97,119.09c0-18.61,12.13-31.46,29.54-31.46,2.54,0,12.07-.07,19.78,6.89,7.79,7.03,8.87,16.83,9.35,21.1.29,2.59.26,4.78.17,6.35h-45.01c-.02.96-.09,8.3,5.75,13.01,4.29,3.46,9.11,3.31,10.69,3.31,8.04,0,13.33-3.12,15.01-8.76h13.57c-2.52,12.97-13.33,20.77-28.82,20.77-17.65,0-30.02-12.85-30.02-31.22ZM398.03,112.55c-.04-1.37-.32-5.06-3.03-8.27-3.83-4.54-9.55-4.62-11.37-4.65-1.81-.02-6.06-.02-9.92,3.06-4.52,3.6-5.21,8.76-5.33,9.85h29.65Z"/>
    <path class="cls-1" d="M421.14,119.33c0-18.49,10.81-31.7,28.7-31.7,8.28,0,15.61,3.48,19.33,9.37v-37.58h14.53v89.33h-13.45l-.96-9.25c-3.6,6.84-11.29,10.81-20.29,10.81-17.17,0-27.86-12.61-27.86-30.98ZM469.05,118.85c0-10.69-6.6-18.13-16.81-18.13s-16.45,7.56-16.45,18.13,6.24,18.01,16.45,18.01,16.81-7.32,16.81-18.01Z"/>
    <path class="cls-1" d="M546.11,68.18c0-4.92,3.96-8.77,9-8.77s8.77,3.84,8.77,8.77-3.96,8.89-8.77,8.89c-5.04,0-9-3.96-9-8.89ZM547.79,89.43h14.65v59.32h-14.65v-59.32Z"/>
    <path class="cls-1" d="M610.46,147.9c-3.24,1.44-7.09,2.16-11.29,2.16-11.29,0-18.37-5.76-18.37-19.93v-28.46h-9.13v-12.25h9.13v-18.49h14.53v18.49h13.57v12.25h-13.57v25.94c0,7.09,3.12,9.48,7.56,9.48,1.68,0,3.72-.36,5.88-1.08l1.68,11.88Z"/>
  </g>
  <polygon class="cls-2" points="631.39 150.59 621.97 141.17 645.87 117.27 621.97 93.37 631.39 83.95 660 112.56 660 121.98 631.39 150.59"/>
  <polygon class="cls-2" points="88.61 83.95 98.03 93.37 74.13 117.26 98.03 141.17 88.61 150.59 60 121.97 60 112.55 88.61 83.95"/>
</svg>