<?xml version="1.0" encoding="UTF-8"?>
<svg id="Layer_1" data-name="Layer 1" xmlns="http://www.w3.org/2000/svg" viewBox="0 0 210 132.17">
  <defs>
    <style>
      .cls-1 {
        fill: #fff;
      }

      .cls-2 {
        fill: #00d264;
      }
    </style>
  </defs>
  <path class="cls-2" d="M83.78,102.17l28.18-72.17h11.84l-28.28,72.17h-11.74Z"/>
  <path class="cls-1" d="M30,78.21c0-15.04,9.8-25.42,23.86-25.42,2.05,0,9.75-.05,15.98,5.57,6.29,5.68,7.17,13.59,7.55,17.05.23,2.09.21,3.86.14,5.13h-36.37c-.02.78-.07,6.71,4.65,10.51,3.46,2.79,7.36,2.68,8.63,2.68,6.5,0,10.77-2.52,12.13-7.08h10.96c-2.04,10.48-10.77,16.78-23.28,16.78-14.26,0-24.25-10.38-24.25-25.22ZM65.59,72.93c-.03-1.1-.26-4.09-2.45-6.68-3.09-3.67-7.72-3.73-9.19-3.75-1.47-.02-4.89-.02-8.02,2.48-3.65,2.91-4.21,7.08-4.31,7.96h23.96Z"/>
  <path class="cls-1" d="M128.01,37.08c0-3.98,3.2-7.08,7.27-7.08s7.08,3.11,7.08,7.08-3.2,7.18-7.08,7.18c-4.07,0-7.27-3.2-7.27-7.18ZM129.37,54.25h11.83v47.92h-11.83v-47.92Z"/>
  <path class="cls-1" d="M180,101.49c-2.62,1.16-5.72,1.75-9.12,1.75-9.12,0-14.84-4.66-14.84-16.1v-22.99h-7.37v-9.89h7.37v-14.94h11.74v14.94h10.96v9.89h-10.96v20.95c0,5.72,2.52,7.66,6.11,7.66,1.36,0,3.01-.29,4.75-.87l1.36,9.6Z"/>
</svg>